# xmcd
#
# Track frame offsets: 
#        150
#        17116
#        33392
#        55385
#        73746
#        92500
#        108778
#        125271
#        142493
#        155402
#        175272
#        192291
#        207532
#        224841
#        239707
#        263370
#        276775
#        292639
#        307411
#        321884
#
# Disc length: 4505 seconds
#
# Revision: 2
# Processed by: cddbd v1.5.1PL2 Copyright (c) Steve Scherf et al.
# Submitted via: ExactAudioCopy v0.95b4
#
DISCID=39119714
DTITLE=Various Artist - New Songs 2005-06 Vol 2
DYEAR=2005
DGENRE=Gospel
TTITLE0=Dancing Generation
TTITLE1=Glory
TTITLE2=In Him I Have Believed
TTITLE3=The Wonder Of Your Cross
TTITLE4=Surprising
TTITLE5=Faithful
TTITLE6=Joy Has Dawned
TTITLE7=I Will Set My Face
TTITLE8=Father Of The Fatherless
TTITLE9=Saviour I Must Sing
TTITLE10=We Adore Your Lord
TTITLE11=Jesus Your Name
TTITLE12=Victory In Defeat
TTITLE13=Your Love
TTITLE14=Radiant
TTITLE15=Good And Gracious
TTITLE16=Praise Awaits You
TTITLE17=Here Is Love
TTITLE18=Take This Bread
TTITLE19=When The Day Begins
EXTD=
EXTT0=
EXTT1=
EXTT2=
EXTT3=
EXTT4=
EXTT5=
EXTT6=
EXTT7=
EXTT8=
EXTT9=
EXTT10=
EXTT11=
EXTT12=
EXTT13=
EXTT14=
EXTT15=
EXTT16=
EXTT17=
EXTT18=
EXTT19=
PLAYORDER=
